<mxfile host="app.diagrams.net" modified="2023-03-24T08:19:58.661Z" agent="Mozilla/5.0 (Macintosh; Intel Mac OS X 10.15; rv:109.0) Gecko/20100101 Firefox/111.0" version="21.1.0" etag="4p_kBrbn56zftH7IY79R" type="github">
  <diagram name="第 1 页" id="7cYH2ieLrEwTZOzL09dt">
    <mxGraphModel>
      <root>
        <mxCell id="0" />
        <mxCell id="1" parent="0" />
      </root>
    </mxGraphModel>
  </diagram>
</mxfile>
